<svg width="384" height="450" viewBox="0 0 384 450" fill="none" xmlns="http://www.w3.org/2000/svg">
<path d="M376.6 53.5C387.9 39.9 386.1 19.7 372.5 8.4C358.9 -2.9 338.7 -1.1 327.4 12.5L192 175L56.6002 12.5C45.3002 -1.1 25.1002 -2.9 11.5002 8.4C-2.09977 19.7 -3.89977 39.9 7.40023 53.5L150.3 225L7.40023 396.5C-3.89977 410.1 -2.09977 430.3 11.5002 441.6C25.1002 452.9 45.3002 451.1 56.6002 437.5L192 275L327.4 437.5C338.7 451.1 358.9 452.9 372.5 441.6C386.1 430.3 387.9 410.1 376.6 396.5L233.7 225L376.6 53.5Z" fill="#9B9A9C"/>
</svg>
